<svg xmlns="http://www.w3.org/2000/svg" viewBox="0 0 900 300"><rect width="900" height="300" fill="#ffffff"/><style>.draw{stroke-dasharray:3200;stroke-dashoffset:3200;animation:sketch 12s ease-in-out infinite}@keyframes sketch{0%{stroke-dashoffset:3200}22%{stroke-dashoffset:0}80%{stroke-dashoffset:0}100%{stroke-dashoffset:3200}}.flowline{stroke-dasharray:6 10;animation:gentleFlow 3s linear infinite}@keyframes gentleFlow{from{stroke-dashoffset:32}to{stroke-dashoffset:0}}.blinkdot{animation:blinkdot 1.6s ease-in-out infinite}@keyframes blinkdot{0%,100%{opacity:1}50%{opacity:0.3}}</style><text x="450" y="26" text-anchor="middle" dominant-baseline="central" font-family="ui-monospace, SFMono-Regular, Menlo, monospace" font-size="20" font-weight="700" fill="#0f172a">zero-secret vault · AES-256-GCM · scrypt KDF</text><path d="M30.8,71.4L226.5,71L224.9,198.5L28,199.2ZM30.6,68.6L225.3,71.8L225.3,199.9L30.2,199.6Z" fill="none" stroke="#2563eb" stroke-width="2.5" stroke-linecap="round"/><text x="127" y="108" text-anchor="middle" dominant-baseline="central" font-family="ui-monospace, SFMono-Regular, Menlo, monospace" font-size="16" font-weight="700" fill="#0f172a">ENV POOLS</text><text x="127" y="138" text-anchor="middle" dominant-baseline="central" font-family="ui-monospace, SFMono-Regular, Menlo, monospace" font-size="12" font-weight="400" fill="#475569">comma keys once</text><text x="127" y="162" text-anchor="middle" dominant-baseline="central" font-family="ui-monospace, SFMono-Regular, Menlo, monospace" font-size="12" font-weight="400" fill="#475569">then unset env</text><path d="M225,135L236.3,132.2L250,135" fill="none" stroke="#0f172a" stroke-width="2.5" stroke-linecap="round"/><path d="M250,135L238.2,142.5M250,135L238.2,127.5" fill="none" stroke="#0f172a" stroke-width="2.5" stroke-linecap="round"/><line x1="225" y1="135" x2="250" y2="135" class="flowline" stroke="#2563eb" stroke-width="1.6"/><path d="M243.9,69.6L439.2,69.8L440.9,198.5L245.2,198.8ZM244.9,70.4L441.7,69.2L441.8,198.4L244.6,200.8Z" fill="none" stroke="#2563eb" stroke-width="2.5" stroke-linecap="round"/><text x="342" y="108" text-anchor="middle" dominant-baseline="central" font-family="ui-monospace, SFMono-Regular, Menlo, monospace" font-size="16" font-weight="700" fill="#0f172a">scrypt KDF</text><text x="342" y="138" text-anchor="middle" dominant-baseline="central" font-family="ui-monospace, SFMono-Regular, Menlo, monospace" font-size="12" font-weight="400" fill="#475569">machine.key 0600</text><text x="342" y="162" text-anchor="middle" dominant-baseline="central" font-family="ui-monospace, SFMono-Regular, Menlo, monospace" font-size="12" font-weight="400" fill="#475569">~/.opencode-voice</text><path d="M440,135L453.7,134.7L465,135" fill="none" stroke="#0f172a" stroke-width="2.5" stroke-linecap="round"/><path d="M465,135L453.2,142.5M465,135L453.2,127.5" fill="none" stroke="#0f172a" stroke-width="2.5" stroke-linecap="round"/><line x1="440" y1="135" x2="465" y2="135" class="flowline" stroke="#2563eb" stroke-width="1.6"/><path d="M461,71.9L654.5,70L654,201.3L459.6,198.9ZM461.8,69.6L655.8,68.2L654.5,201.6L459,198.5Z" fill="none" stroke="#2563eb" stroke-width="2.5" stroke-linecap="round"/><text x="557" y="108" text-anchor="middle" dominant-baseline="central" font-family="ui-monospace, SFMono-Regular, Menlo, monospace" font-size="16" font-weight="700" fill="#0f172a">AES-256-GCM</text><text x="557" y="138" text-anchor="middle" dominant-baseline="central" font-family="ui-monospace, SFMono-Regular, Menlo, monospace" font-size="12" font-weight="400" fill="#475569">nonce · ct · sum</text><text x="557" y="162" text-anchor="middle" dominant-baseline="central" font-family="ui-monospace, SFMono-Regular, Menlo, monospace" font-size="12" font-weight="400" fill="#475569">checksum-then-decrypt</text><path d="M655,135L666.1,137.6L680,135" fill="none" stroke="#0f172a" stroke-width="2.5" stroke-linecap="round"/><path d="M680,135L668.2,142.5M680,135L668.2,127.5" fill="none" stroke="#0f172a" stroke-width="2.5" stroke-linecap="round"/><line x1="655" y1="135" x2="680" y2="135" class="flowline" stroke="#2563eb" stroke-width="1.6"/><path d="M677,70.2L868.5,68.7L871.6,198.1L673,200.2ZM673.6,70L870.4,68.2L871.5,201.7L674.3,200.9Z" fill="none" stroke="#16a766" stroke-width="2.5" stroke-linecap="round"/><text x="772" y="108" text-anchor="middle" dominant-baseline="central" font-family="ui-monospace, SFMono-Regular, Menlo, monospace" font-size="16" font-weight="700" fill="#0f172a">KEYRING</text><text x="772" y="138" text-anchor="middle" dominant-baseline="central" font-family="ui-monospace, SFMono-Regular, Menlo, monospace" font-size="12" font-weight="400" fill="#475569">ephemeral · zeroed</text><text x="772" y="162" text-anchor="middle" dominant-baseline="central" font-family="ui-monospace, SFMono-Regular, Menlo, monospace" font-size="12" font-weight="400" fill="#475569">release → wipe</text><path d="M253.2,230.8L644,233L644.1,266.6L254.8,265ZM255.1,232.5L645,233.7L643.2,264.3L253.2,266.8Z" fill="none" stroke="#d97706" stroke-width="2" stroke-linecap="round"/><text x="450" y="250" text-anchor="middle" dominant-baseline="central" font-family="ui-monospace, SFMono-Regular, Menlo, monospace" font-size="13" font-weight="400" fill="#d97706">safeStorage preferred when present · values never printed</text></svg>
